<?xml version="1.0" encoding="utf-8"?>
<!-- Generator: Adobe Illustrator 27.0.1, SVG Export Plug-In . SVG Version: 6.00 Build 0)  -->
<svg version="1.1" id="Layer_1" xmlns="http://www.w3.org/2000/svg" xmlns:xlink="http://www.w3.org/1999/xlink" x="0px" y="0px"
	 viewBox="0 0 714 714" style="enable-background:new 0 0 714 714;" xml:space="preserve">
<g>
	<path style="fill:#8B5E3C;" d="M162.8964081,563.7235107c-36.0141678,0-70.6084061-20.2988281-87.0507889-54.9384766
		L61.654705,478.8865967c-11.0185547-23.2119141-12.3374023-49.3251953-3.7148438-73.5292969
		c8.6225548-24.2050781,26.1547813-43.6035156,49.3671837-54.6210938l402.7553711-191.1728668
		c47.914093-22.7446289,105.4043274-2.2661133,128.1504211,45.6518555l14.1914062,29.8974609
		c22.7431641,47.9155426,2.2578125,105.4033356-45.6533203,128.1508942L203.9960175,554.4364014
		C190.7181854,560.7391357,176.7010956,563.7235107,162.8964081,563.7235107z M551.2177124,186.5545502
		c-8.5996094,0-17.3261719,1.8579102-25.5986328,5.7841797l-402.754425,191.1728668
		c-14.4575195,6.8623047-25.3774414,18.9443359-30.7480469,34.0205078
		c-5.3706055,15.0751953-4.5488281,31.3398438,2.3134766,45.796875l14.190918,29.8984375
		c14.1669922,29.8447266,49.9741287,42.6025391,79.8173904,28.4335938l402.7558594-191.1733398
		c29.8447266-14.1665039,42.6005859-49.972168,28.4345703-79.8178864l-14.1914062-29.8969727
		C595.1972046,199.1995697,573.6473999,186.5545502,551.2177124,186.5545502z"/>
	<path style="fill:#A97C50;" d="M598.9728394,346.8755798L196.2173615,538.0488892
		c-38.9436035,18.4851074-85.4987717,1.9002075-103.9838715-37.0433655l-14.191246-29.8974915
		c-18.485096-38.9436035-1.9002151-85.4987488,37.0433807-103.9838562l402.7554932-191.1733246
		c38.9435425-18.4851074,85.4987183-1.9002228,103.9838257,37.0433655l14.1912231,29.8974915
		C654.5012817,281.8353271,637.9164429,328.3904724,598.9728394,346.8755798z"/>
	<g>
		<path style="fill:#8B5E3C;" d="M447.3188171,280.4345093c-5.352417-11.2761841-18.8325806-16.0784302-30.1088257-10.7260132
			l-165.8603363,78.7278442c-11.2762451,5.352417-16.0784302,18.8326416-10.7260132,30.1088867l26.1159515,55.0199585
			c5.352417,11.2762451,18.8326416,16.0784302,30.1088257,10.7260132l165.8603516-78.7278442
			c11.2762451-5.352417,16.0784302-18.8325806,10.7260132-30.1088257L447.3188171,280.4345093z"/>
		
			<ellipse transform="matrix(0.9033861 -0.4288281 0.4288281 0.9033861 -166.8926849 98.4785995)" style="fill:#8B5E3C;" cx="135.1060638" cy="419.6222839" rx="6.6823497" ry="6.2189202"/>
		<path style="fill:#8B5E3C;" d="M166.5026093,411.6034546c3.3340454-1.5825806,4.8428955-5.3807983,3.3700562-8.4836426
			c-1.4727783-3.1027832-5.3694458-4.3352051-8.7034912-2.7526855s-4.8428955,5.3807983-3.3701172,8.4835815
			C159.2718964,411.9535522,163.1685638,413.1859741,166.5026093,411.6034546z"/>
		<path style="fill:#8B5E3C;" d="M195.2324677,397.9664307c3.3340454-1.5825806,4.8428345-5.3807983,3.3700562-8.4835815
			c-1.4727783-3.1028442-5.3695068-4.3352661-8.7035522-2.7527466c-3.3339844,1.5825806-4.8428345,5.3807983-3.3700562,8.4836426
			C188.0016937,398.3165283,191.8984222,399.5489502,195.2324677,397.9664307z"/>
		
			<ellipse transform="matrix(0.9033986 -0.4288017 0.4288017 0.9033986 -175.7835083 105.4453506)" style="fill:#8B5E3C;" cx="146.1378174" cy="442.8634949" rx="6.6823568" ry="6.2189145"/>
		<path style="fill:#8B5E3C;" d="M180.9044647,426.361084c-1.4727783-3.1028442-5.3695068-4.3352661-8.7035522-2.7527466
			c-3.3340454,1.5825806-4.8428345,5.3807983-3.3700562,8.4836426c1.4727783,3.1027832,5.3695068,4.3352051,8.7035522,2.7526855
			C180.8683929,433.262085,182.377243,429.4638672,180.9044647,426.361084z"/>
		<path style="fill:#8B5E3C;" d="M209.6342621,412.7240601c-1.4727783-3.1028442-5.3694458-4.3352661-8.7034912-2.7526855
			c-3.3340454,1.5825195-4.8428955,5.3807373-3.3701172,8.4835815c1.4728394,3.1028442,5.3695068,4.3352661,8.7035522,2.7526855
			C209.5982513,419.6251221,211.1071014,415.8269043,209.6342621,412.7240601z"/>
		<path style="fill:#8B5E3C;" d="M163.2064056,463.2393188c-1.4727783-3.1028442-5.3695068-4.3352661-8.7035522-2.7527466
			c-3.3340454,1.5825806-4.8428345,5.3807983-3.3700562,8.4836426c1.4727783,3.1027832,5.3695068,4.3352051,8.7035522,2.7526855
			C163.1703339,470.1403809,164.679184,466.3421021,163.2064056,463.2393188z"/>
		<path style="fill:#8B5E3C;" d="M191.936203,449.6022949c-1.4727783-3.1028442-5.3695068-4.3352661-8.7034912-2.7526855
			c-3.3340454,1.5825195-4.8428955,5.3807373-3.3701172,8.4835815c1.4728394,3.1028442,5.3695068,4.3352661,8.7035522,2.7526855
			C191.9001923,456.5033569,193.4090424,452.7051392,191.936203,449.6022949z"/>
		<path style="fill:#8B5E3C;" d="M220.6660614,435.965271c-1.4727783-3.1027832-5.3695068-4.3352051-8.7035522-2.7526855
			c-3.3340454,1.5825806-4.8428345,5.3807983-3.3700562,8.4835815c1.4727783,3.1028442,5.3695068,4.3352661,8.7035522,2.7527466
			C220.6299896,442.866333,222.1388397,439.0681152,220.6660614,435.965271z"/>
		<path style="fill:#8B5E3C;" d="M165.5346527,483.7278442c-3.3340454,1.5825195-4.8428955,5.3807983-3.3701172,8.4835815
			c1.4728394,3.1028442,5.3695068,4.3352661,8.7035522,2.7526855c3.3340454-1.5825195,4.8428955-5.3807373,3.3700562-8.4835815
			C172.7653656,483.3776855,168.8686371,482.1452637,165.5346527,483.7278442z"/>
		<path style="fill:#8B5E3C;" d="M194.2644501,470.0908203c-3.3340454,1.5825806-4.8428345,5.3807983-3.3700562,8.4835815
			c1.4727783,3.1028442,5.3695068,4.3352661,8.7035522,2.7527466c3.3339844-1.5825806,4.8428345-5.3807983,3.3700562-8.4836426
			C201.495224,469.7407227,197.5984955,468.5083008,194.2644501,470.0908203z"/>
		<path style="fill:#8B5E3C;" d="M222.9943085,456.4537964c-3.3340454,1.5825806-4.8428955,5.3807983-3.3701172,8.4836426
			c1.4728394,3.1027832,5.3695068,4.3352051,8.7035522,2.7526855s4.8428955-5.3807983,3.3700562-8.4835815
			C230.2250214,456.1036987,226.3282928,454.8712769,222.9943085,456.4537964z"/>
		<path style="fill:#8B5E3C;" d="M494.4342346,249.0623016c-1.4727783-3.1028442-5.3695068-4.3352661-8.7035522-2.7526855
			c-3.3340454,1.5825195-4.8428345,5.3807373-3.3700562,8.4835815c1.4727783,3.1027985,5.3695068,4.3352203,8.7035522,2.7527008
			C494.3982239,255.9633636,495.9070129,252.1650848,494.4342346,249.0623016z"/>
		<path style="fill:#8B5E3C;" d="M519.7940063,243.9088593c3.3340454-1.5825195,4.8428955-5.3807373,3.3700562-8.4835815
			c-1.4727783-3.1027832-5.3695068-4.3352051-8.7034912-2.7526855c-3.3340759,1.5825195-4.842926,5.3807983-3.3700867,8.4835815
			C512.5632935,244.2590179,516.4599609,245.4914398,519.7940063,243.9088593z"/>
		<path style="fill:#8B5E3C;" d="M548.5238647,230.2718964c3.3339844-1.5825806,4.8428345-5.3807983,3.3700562-8.4835815
			c-1.4727783-3.1028442-5.3695068-4.3352661-8.7035522-2.7527466c-3.3340454,1.5825806-4.8428345,5.3807983-3.3700562,8.4836426
			C541.2930908,230.621994,545.1898193,231.8544159,548.5238647,230.2718964z"/>
		
			<ellipse transform="matrix(0.9034052 -0.4287878 0.4287878 0.9034052 -69.7468491 240.7290039)" style="fill:#8B5E3C;" cx="499.4291992" cy="275.1689758" rx="6.6823635" ry="6.2189007"/>
		<path style="fill:#8B5E3C;" d="M534.1958618,258.6665039c-1.4728394-3.1027985-5.3695068-4.3352203-8.7035522-2.7527008
			c-3.3340454,1.5825958-4.8428955,5.3808136-3.3700562,8.4836578c1.4727783,3.1027832,5.3695068,4.3352051,8.7034912,2.7526855
			C534.15979,265.5675659,535.6686401,261.7693481,534.1958618,258.6665039z"/>
		<path style="fill:#8B5E3C;" d="M562.9256592,245.0295258c-1.4727783-3.1028442-5.3695068-4.3352661-8.7034912-2.7526855
			c-3.3340454,1.5825195-4.8428955,5.3807373-3.3701172,8.4835815c1.4728394,3.1028442,5.3695068,4.3352661,8.7035522,2.7526855
			C562.8896484,251.9305878,564.3984985,248.132309,562.9256592,245.0295258z"/>
		<path style="fill:#8B5E3C;" d="M516.4978027,295.5447388c-1.4728394-3.1027832-5.3695374-4.3352051-8.7035828-2.7526855
			c-3.3340454,1.5825806-4.8428345,5.3807983-3.3700562,8.4836426c1.4727783,3.1027832,5.3695068,4.3352051,8.7035217,2.7526855
			C516.461731,302.4458008,517.9705811,298.647583,516.4978027,295.5447388z"/>
		
			<ellipse transform="matrix(0.9033861 -0.4288281 0.4288281 0.9033861 -70.0254364 258.7331848)" style="fill:#8B5E3C;" cx="539.1907959" cy="284.7732239" rx="6.6823497" ry="6.2189202"/>
		<path style="fill:#8B5E3C;" d="M573.9574585,268.270752c-1.4728394-3.1027832-5.3695068-4.3352051-8.7035522-2.7526855
			s-4.8428955,5.3807983-3.3700562,8.4835815c1.4727783,3.1028442,5.3695068,4.3352661,8.7034912,2.7526855
			C573.9213867,275.171814,575.4302368,271.3735962,573.9574585,268.270752z"/>
		
			<ellipse transform="matrix(0.9033937 -0.428812 0.428812 0.9033937 -87.5485458 254.6958771)" style="fill:#8B5E3C;" cx="521.4927368" cy="321.6514587" rx="6.6823497" ry="6.2189202"/>
		<path style="fill:#8B5E3C;" d="M547.5558472,302.3963013c-3.3340454,1.5825195-4.8428955,5.3807983-3.3700562,8.4835815
			c1.4727783,3.1028442,5.3695068,4.3352661,8.7034912,2.7527466c3.3340454-1.5825806,4.8428955-5.3807983,3.3701172-8.4836426
			C554.7865601,302.0462036,550.8898926,300.8137817,547.5558472,302.3963013z"/>
		<path style="fill:#8B5E3C;" d="M584.9891968,291.5120239c-1.4727783-3.1028442-5.3695068-4.3352661-8.7035522-2.7527466
			c-3.3339844,1.5825806-4.8428345,5.3807983-3.3700562,8.4836426c1.4727783,3.1027832,5.3695068,4.3352051,8.7035522,2.7526855
			C584.953186,298.4130249,586.4619751,294.6148071,584.9891968,291.5120239z"/>
	</g>
</g>
</svg>
