<?xml version="1.0" encoding="iso-8859-1"?>
<!-- Generator: Adobe Illustrator 25.2.1, SVG Export Plug-In . SVG Version: 6.00 Build 0)  -->
<svg version="1.1" id="Layer_1" xmlns="http://www.w3.org/2000/svg" xmlns:xlink="http://www.w3.org/1999/xlink" x="0px" y="0px"
	 viewBox="0 0 714 714" style="enable-background:new 0 0 714 714;" xml:space="preserve">
<g>
	<g>
		<g>
			<rect x="139.157" y="256.382" style="fill:#D1D1D1;" width="426.981" height="151.855"/>
			<path d="M567.196,409.294H138.099V255.325h429.097V409.294z M140.214,407.179h424.867V257.44H140.214V407.179z"/>
		</g>
		<g>
			<polygon style="fill:#FCFCFC;" points="246.084,256.382 139.157,256.382 139.157,408.237 261.03,408.237 			"/>
			<path d="M261.031,409.296H139.157c-0.585,0-1.058-0.473-1.058-1.058V256.383c0-0.585,0.473-1.058,1.058-1.058h106.927
				c0.544,0,0.999,0.413,1.052,0.954l14.947,151.855c0.029,0.297-0.068,0.593-0.269,0.814S261.329,409.296,261.031,409.296z
				 M140.214,407.181h119.649l-14.738-149.74H140.214V407.181z"/>
		</g>
		<g>
			<path style="fill:#929292;" d="M214.191,296.281c13.101,12.506,27.394,21.438,27.394,27.394c0,5.955-22.232,11.91-22.629,28.187
				c-0.547,22.424,16.674,25.408,21.438,36.128c0.774,1.742-5.085,11.609-9.829,20.247h307.168
				c-1.635-6.843-4.348-19.864-4.348-30.967c0-15.88,5.955-30.967,8.337-40.892c2.382-9.925,4.367-17.468,5.955-30.172
				c1.588-12.704-0.397-23.026-3.573-28.187c-2.079-3.38-3.138-14.418-3.621-21.637h-333.39c-2.084,7.242-3.786,19.69-3.025,28.585
				l-8.337,5.955c0,0,14.011-2.466,14.343-1.457C210.949,292.12,212.278,294.455,214.191,296.281z"/>
			<path d="M537.732,409.296H230.565c-0.374,0-0.72-0.198-0.91-0.518c-0.191-0.322-0.197-0.721-0.018-1.047
				c0.808-1.471,1.646-2.976,2.48-4.47c3.167-5.68,7.506-13.461,7.286-14.913c-1.539-3.445-4.643-6.186-7.929-9.086
				c-6.536-5.769-13.944-12.308-13.576-27.425c0.26-10.639,9.298-17.028,15.897-21.694c3.463-2.448,6.733-4.759,6.733-6.469
				c0-3.453-6.466-8.865-13.952-15.13c-4.065-3.402-8.673-7.258-13.115-11.498l0,0c-1.832-1.749-3.252-4.024-4.226-6.764
				c-1.701-0.095-7.975,0.739-13.32,1.681c-0.5,0.087-0.969-0.176-1.159-0.632c-0.191-0.454-0.041-0.983,0.36-1.27l7.85-5.606
				c-0.66-9.119,1.085-21.326,3.111-28.365c0.13-0.452,0.545-0.764,1.016-0.764h333.39c0.558,0,1.018,0.432,1.055,0.987
				c0.737,11.061,2.001,18.771,3.466,21.152c2.945,4.784,5.469,14.882,3.722,28.871c-1.442,11.527-3.226,18.907-5.294,27.452
				l-0.684,2.838c-0.603,2.507-1.44,5.372-2.324,8.402c-2.667,9.127-5.984,20.487-5.984,32.242c0,10.986,2.706,23.964,4.319,30.722
				c0.074,0.316,0.002,0.646-0.198,0.901C538.362,409.147,538.057,409.296,537.732,409.296z M232.357,407.181h304.041
				c-1.648-7.122-4.071-19.38-4.071-29.91c0-12.058,3.365-23.577,6.068-32.835c0.878-3.005,1.706-5.845,2.297-8.303l0.686-2.84
				c2.051-8.483,3.823-15.809,5.25-27.219c1.681-13.461-0.795-23.228-3.425-27.502c-2.047-3.325-3.142-13.118-3.708-21.132H207.896
				c-1.924,7.111-3.51,18.831-2.775,27.436c0.032,0.374-0.135,0.735-0.439,0.952l-4.611,3.292
				c10.466-1.648,10.738-0.803,11.008,0.014c0.864,2.625,2.158,4.771,3.843,6.382c4.392,4.191,8.971,8.024,13.011,11.406
				c8.54,7.147,14.71,12.31,14.71,16.751c0,2.805-3.367,5.184-7.628,8.198c-6.581,4.651-14.769,10.439-15.003,20.014
				c-0.345,14.134,6.671,20.326,12.861,25.789c3.464,3.059,6.737,5.946,8.487,9.885c0.78,1.754-1.531,6.211-7.395,16.73
				C233.428,405.254,232.888,406.22,232.357,407.181z"/>
		</g>
		<path d="M372.895,268.59c3.169,0.925,6.103,2.277,8.939,3.785c2.836,1.509,5.568,3.199,8.174,5.079
			c2.616,1.862,5.088,3.948,7.389,6.238c2.277,2.289,4.471,4.806,5.87,7.825l-7.969-5.278c-2.611-1.75-5.21-3.511-7.763-5.355
			c-2.557-1.836-5.056-3.766-7.522-5.771C377.549,273.105,375.141,271.003,372.895,268.59z"/>
		<path d="M415.077,355.038c3.357-1.902,6.716-3.475,9.883-5.344c1.6-0.898,3.138-1.883,4.561-2.994
			c1.418-1.124,2.747-2.343,3.818-3.969c-0.237,1.952-1.366,3.737-2.696,5.179c-1.331,1.483-2.95,2.629-4.624,3.612
			c-1.693,0.958-3.456,1.767-5.293,2.35C418.898,354.468,417.017,354.919,415.077,355.038z"/>
		<path style="fill:#CECECE;" d="M315.428,342.929c0,0-14.689,4.367-9.33,14.689s19.652,2.779,20.446-6.551
			C327.338,341.738,315.428,342.929,315.428,342.929z"/>
		<path style="fill:#CECECE;" d="M497,345.563c0,0-11.971,4.664-7.603,15.688c4.368,11.024,16.015,2.968,16.663-6.996
			C506.707,344.291,497,345.563,497,345.563z"/>
		<path d="M413.092,360.993c1.079-0.371,2.174-0.467,3.257-0.454c1.087,0.007,2.162,0.169,3.221,0.431
			c1.047,0.304,2.089,0.675,3.038,1.269c0.944,0.581,1.834,1.332,2.395,2.327c-2.157-0.591-3.991-1.041-5.97-1.551
			C417.08,362.474,415.118,361.971,413.092,360.993z"/>
		<path d="M300.739,374.69c7.929-0.887,15.847-1.134,23.771-1.223c1.96-0.023,4.01,0.057,5.896-0.045
			c1.914-0.073,3.819-0.362,5.708-0.766c3.753-0.895,7.456-2.282,10.876-4.318c-2.94,2.706-6.565,4.699-10.447,5.911
			c-1.942,0.622-3.967,0.971-6.006,1.17c-2.071,0.171-3.991,0.101-5.994,0.161C316.608,375.602,308.668,375.466,300.739,374.69z"/>
		<path d="M354.136,346.304c1.787-1.638,8.486-2.382,8.486-2.382s-1.936-1.042-4.913-1.638c-2.977-0.595-8.933-3.424-8.933-3.424
			l5.211-1.638l-11.463-2.084c0,0,0,0-7.891-2.382c-7.891-2.382-21.438-0.298-32.009-1.191c-10.571-0.893-24.416-0.298-24.416-0.298
			l7.891,2.084c0,0-4.169-0.447-16.823,1.34c-12.655,1.787-23.076,9.528-24.714,10.868c-1.637,1.34-2.159,2.531,0.745,5.583
			c2.903,3.052,5.806,2.68,6.178,5.359s-4.838,2.308-4.838,2.308s10.421,3.573,18.163,6.848c7.742,3.275,22.927,5.657,22.927,5.657
			s-13.995-5.062-19.652-9.23c-5.657-4.169-13.399-10.421-11.414-13.002c1.148-1.493,13.796-10.223,36.128-10.223
			c0.532,0,1.055,0.007,1.584,0.009c-0.404,6.387,0.088,25.587,19.855,30.858c21.573,5.753,32.237-10.636,32.288-21.448
			c5.913,5.277,11.738,12.96,9.696,9.935C352.201,352.259,352.35,347.942,354.136,346.304z M327.338,364.963
			c-6.968,1.64-13.182-1.423-16.251-4.85c0.006-1.592,0.296-4.877,2.389-7.492c0.364-0.456,0.291-1.122-0.165-1.487
			c-0.456-0.361-1.122-0.287-1.487,0.165c-1.489,1.862-2.217,3.96-2.564,5.754c-0.148-0.499-0.226-0.98-0.184-1.42
			c0.397-4.169,5.955-8.933,5.955-8.933s2.779,0.298,3.573,1.191c0.794,0.893,0.794,0.893,0.794,0.893s1.39-1.191,3.772-0.199
			c2.382,0.992-0.794,4.367-0.794,4.367s4.596,1.467,7.196-1.216c0.164-0.169,0.286-0.343,0.425-0.515
			c1.769,1.853,4.648,5.277,5.877,9.008C334.195,362.092,331.546,363.973,327.338,364.963z M337.369,358.219
			c-1.655-3.895-4.612-7.23-6.264-8.897c0.59-1.539,0.476-2.795,0.476-2.795s6.179,5.037,7.072,8.511
			C338.653,355.038,338.427,356.438,337.369,358.219z"/>
		<path d="M428.873,332.012c-8.039,3.573-8.039,2.084-15.483,4.764c-4.251,1.53-10.048,2.767-14.246,3.549
			c2.164-0.819,3.907-1.943,4.771-3.672c0.01-0.019,0.015-0.04,0.024-0.06c2.275-1.47,4.414-3.159,6.372-5.103
			c0.752-0.748,1.493-1.518,2.15-2.388c0.692-0.88,1.17-1.44,1.861-2.135c1.303-1.322,2.794-2.572,4.34-3.81
			c1.54-1.255,3.151-2.483,4.734-3.896c0.785-0.735,1.574-1.456,2.338-2.416c0.375-0.489,0.768-0.984,1.068-1.738
			c0.298-0.709,0.366-1.498,0.361-2.093c-0.051-2.454-0.76-4.403-1.473-6.383c-0.783-1.942-1.654-3.822-2.773-5.587
			c0.231,2.071,0.559,4.083,0.757,6.087c0.232,1.959,0.415,4.039,0.195,5.658c-0.147,0.815-0.345,0.952-0.941,1.632
			c-0.561,0.586-1.335,1.182-2.097,1.762c-1.552,1.178-3.204,2.381-4.827,3.683c-1.611,1.319-3.225,2.72-4.647,4.422
			c-0.68,0.81-1.411,1.887-1.903,2.66c-0.511,0.795-1.067,1.595-1.635,2.393c-0.887,1.201-1.83,2.385-2.793,3.568
			c0.46-3.015,0.118-6.228-0.168-8.785c-0.128-1.148-0.24-2.14-0.24-2.834c0-0.357,0.165-0.702,0.357-1.103
			c0.304-0.632,0.717-1.497,0.25-2.477c-0.748-1.561-3.383-2.885-15.716-5.785c-19.106-4.499-54.9-15.493-83.257-25.575
			c-29.687-10.555-57.802-13.946-79.176-9.569c-23.269,4.775-31.747,13.041-32.096,13.39c-0.334,0.333-0.406,0.847-0.178,1.26
			c0.229,0.411,0.696,0.624,1.163,0.518c0.152-0.037,15.483-3.501,31.169-1.177l7.224,1.072l-11.33,1
			c-0.564,0.05-0.988,0.535-0.964,1.101c0.025,0.564,0.491,1.01,1.056,1.01c0.243,0,24.438,0.056,39.588,4.715
			c8.289,2.551,12.892,4.897,18.223,7.613c4.436,2.26,9.462,4.821,17.443,7.849c4.203,1.592,8.537,3.369,12.729,5.085
			c2.785,1.141,5.594,2.284,8.42,3.406c-2.165-0.674-4.361-1.254-6.584-1.701c-4.034-0.829-8.118-1.423-12.22-1.755
			c-8.199-0.63-16.474-0.584-24.599,0.726c8.203,0.352,16.323,0.692,24.423,1.381c0,0-7.092-0.32-14.898,0.319
			c-3.982,0.316-8.021,1.039-11.937,2.135c-3.846,1.191-7.597,2.598-11.185,4.325c-7.196,3.39-14.003,7.519-20.148,12.484
			c7.072-3.48,14.179-6.718,21.423-9.453c3.635-1.324,7.275-2.595,10.985-3.51c3.667-0.881,7.38-1.546,11.227-1.77
			c7.637-0.701,15.422-0.56,23.205-0.354c6.736,0.213,13.493,0.578,20.288,0.929c7.513,2.648,15.168,4.857,22.992,5.974
			c9.216,1.316,14.341,4.596,18.459,7.229c3.162,2.022,5.82,3.724,9.185,3.724c1.076,0,2.227-0.174,3.489-0.568
			c1.935-0.605,4.313-1.002,6.828-1.419c1.272-0.212,2.549-0.43,3.794-0.675l3.652,2.87c0,0,0,0,3.871,0.595
			s16.079,1.191,22.332-2.382c6.253-3.573,6.55-6.848,10.719-9.826c4.168-2.978,4.466-13.994,4.466-13.994
			S436.912,328.439,428.873,332.012z M199.939,289.083c4.324-2.79,12.985-7.235,27.566-10.226c8.373-1.72,17.826-2.198,28.011-1.513
			c-6.957,0.939-13.933,1.635-20.947,2.13c-4.54,0.367-9.052,1.284-13.294,2.915c-3.748,1.517-7.393,3.296-10.694,5.618
			C206.316,288.227,202.598,288.673,199.939,289.083z M226.492,288.571c-4.982-0.669-9.891-0.799-14.289-0.642
			c3.241-1.297,6.475-2.53,9.775-3.546c4.199-1.322,8.409-2.647,12.773-3.228c4.419-0.531,8.9-1.109,13.315-1.836
			c3.2-0.549,6.385-1.166,9.56-1.825c5.999,0.494,12.246,1.397,18.672,2.685c-3.658,0.757-7.417,1.058-11.147,1.266
			c-4.549,0.317-9.032,0.149-13.673,0.338c-4.6,0.235-9.227,0.777-13.668,2.063C233.893,285.053,230.034,286.507,226.492,288.571z
			 M268.417,299.353c-1.55-0.561-3.212-1.125-5.083-1.701c-7.345-2.26-16.56-3.458-24.319-4.094l4.449-0.392
			c0.534-0.048,0.948-0.485,0.965-1.022c0.015-0.535-0.372-0.998-0.903-1.076l-15.737-2.333c3.503-1.08,7.002-2.067,10.55-2.841
			c4.384-0.985,8.778-1.966,13.265-2.424c4.453-0.391,9.1-0.442,13.633-0.971c3.978-0.471,7.964-1.046,11.822-2.169
			c2.191,0.449,4.396,0.929,6.626,1.468c-4.2,0.668-10.571,2.902-17.981,3.961c-9.032,1.29-14.987,2.283-14.987,2.283
			s10.422,0.397,23.523-0.496c13.101-0.893,20.942-0.199,16.873,0.893c-4.069,1.092-15.582,3.077-15.582,3.077s0,0-7.642,0.893
			c-7.642,0.893-15.682,2.481-9.925,2.481c5.756,0,18.361,0.099,31.463-2.183c13.101-2.283,16.476-0.397,16.476-0.397
			s-14.689,3.97-21.637,5.955C279.814,299.537,272.857,299.526,268.417,299.353z M280.481,304.683
			c-1.94-0.984-3.854-1.926-5.923-2.853c4.084,0.398,9.371,0.311,15.859-0.983c8.706-1.736,11.315-2.779,18.461-3.97
			c7.146-1.191,7.345,0.794,2.581,1.786c-4.764,0.993-11.513,4.566-18.461,5.955C288.783,305.461,283.776,305.098,280.481,304.683z
			 M299.129,313.156c-6.036-2.288-10.362-4.31-14.032-6.137c2.707,0.314,6.108,0.259,10.282-0.614
			c7.424-1.554,13.076-3.902,26.972-6.085c1.459-0.229,3.908-0.726,3.92-0.323c-8.371,2.387-26.524,10.478-26.524,10.478
			s16.377-2.382,23.82-5.856c3.188-1.488,15.323-4.146,15.88-3.573c0.434,0.447-5.955,3.375-13.895,6.352
			c-6.38,2.392-21.976,4.912-24.98,6.325C300.093,313.537,299.606,313.337,299.129,313.156z M349.878,304.795
			c-6.346,1.559-10.642,5.905-20.952,8.16c-10.648,2.329-18.34,2.29-24.066,2.449c-0.68-0.272-1.352-0.529-2.031-0.797
			c3.799-0.054,12.756-0.843,24.906-4.63c6.764-2.108,9.95-2.084,14.119-3.871C343.575,305.369,351.059,303.675,349.878,304.795z"/>
		<path d="M369.024,346.602c1.287-0.014,2.519,0.327,3.673,0.799c1.165,0.465,2.245,1.114,3.246,1.864
			c1.968,1.529,3.641,3.535,4.396,5.972c-1.084-0.696-1.987-1.455-2.927-2.166l-2.753-2.127
			C372.833,349.516,370.98,348.197,369.024,346.602z"/>
		<path d="M547.975,307.099l1.489-9.429c0,0-8.337-5.161-21.041-1.985c-12.704,3.176-21.836,9.528-32.158,14.292
			c-10.322,4.764-19.453,4.367-19.453,4.367v-5.161c0,0-2.779,1.191-5.558,3.97c-2.779,2.779-8.734,19.056-12.307,28.187
			l0.298,8.337h0c0,0,3.474,2.382,0.893,4.169c-2.581,1.786-3.176,9.528-2.779,11.91c0.397,2.382,1.985-3.97,1.985-3.97
			s3.97,6.154,4.168,9.727c0.199,3.573,1.588,8.337,4.565,10.322c2.978,1.985,25.21,15.682,25.21,15.682
			s-11.513-11.116-13.895-15.086c-2.382-3.97,3.97-2.183,8.536-1.786c4.565,0.397,8.734,0.397,8.734,0.397
			s-9.925-3.176-16.079-6.154c-6.154-2.978-10.322-1.985-10.918-4.566c-0.596-2.581,0.794-6.551,2.58-9.528
			c1.711-2.852,0.912-5.706,13.749-9.256c-0.013,5.165,1.368,14.443,11.002,17.711c13.765,4.669,19.344-10.593,18.743-17.688
			c2.401,0.526,4.13,0.986,4.842,1.095c2.581,0.397-0.496,8.536-3.672,12.109c-3.176,3.573-7.047,4.268-7.047,4.268
			s7.841-0.298,11.017-3.871c3.176-3.573,8.337-12.506,8.337-13.895c0-1.39-2.183-1.787-2.183-3.573s0.992-5.757-0.992-7.146
			c-1.985-1.39-9.33-1.191-9.33-1.191l1.588-2.581c0,0-6.154-0.397-17.666,0.595c-11.513,0.993-22.332,6.65-22.332,6.65l0,0l0,0
			c8.635-4.764,21.439-13.697,26.798-16.674c5.36-2.978,13.101-7.146,16.377-8.933c3.275-1.786,15.185-5.955,15.185-5.955
			l-10.123,1.191c0,0,4.169-2.382,8.933-4.169C540.233,307.695,547.975,307.099,547.975,307.099z M496.08,363.892
			c0.148-1.118,0.702-3.994,2.673-6.03c0.306-0.316,0.295-0.82-0.019-1.126c-0.32-0.306-0.82-0.295-1.126,0.019
			c-1.656,1.714-2.439,3.871-2.818,5.446c-0.39-0.719-0.585-1.419-0.516-2.005c0.309-2.645,3.619-5.579,3.619-5.579
			s1.604,0.237,2.047,0.819c0.443,0.582,0.443,0.582,0.443,0.582s0.827-0.734,2.188-0.061c1.361,0.672-0.543,2.764-0.543,2.764
			s2.635,1.013,4.191-0.649c0.096-0.102,0.168-0.208,0.25-0.313c1.062,1.303,2.775,3.731,3.308,6.302
			c-1.074,0.905-2.671,1.833-5.103,2.385C501.112,367.254,497.96,365.772,496.08,363.892z M510.836,363.002
			c-0.817-2.809-2.693-5.285-3.681-6.44c0.371-0.968,0.328-1.77,0.328-1.77s3.854,3.579,4.265,6.732
			C511.748,361.524,511.513,362.168,510.836,363.002z M514.502,317.127c-2.131,1.71-4.28,3.048-6.129,5.009
			c1.147-2.426,3.195-4.429,4.999-6.213c1.737-1.87,3.279-3.936,4.693-6.1c0.729-1.068,1.404-2.177,2.073-3.292
			c0.653-1.074,1.378-2.359,2.266-3.371c1.719-2.109,3.732-3.898,5.919-5.44c-1.615,2.124-3.181,4.25-4.587,6.404
			c-0.704,1.103-1.242,2.148-1.858,3.389c-0.629,1.186-1.323,2.339-2.049,3.476C518.325,313.224,516.612,315.367,514.502,317.127z
			 M528.791,302.907c-0.168,0.35-0.358,0.684-0.5,1.031c-0.163,0.352-0.348,0.812-0.549,1.192c-1.704,3.143-4.206,5.521-7.016,7.471
			c1.581-3.077,3.704-5.649,5.143-8.45c0.204-0.353,0.34-0.667,0.544-1.067c0.201-0.417,0.415-0.815,0.661-1.193
			c0.508-0.737,1.034-1.438,1.645-2.06c1.191-1.26,2.536-2.347,4.067-3.16l-2.774,4.176
			C529.589,301.543,529.144,302.208,528.791,302.907z M531.22,303.139c0.043-0.951,0.415-1.803,0.86-2.561
			c0.439-0.774,1.015-1.424,1.616-2.04c1.256-1.172,2.686-2.159,4.521-2.546c-0.793,1.69-1.9,2.897-3.046,4.06
			C533.976,301.192,532.787,302.16,531.22,303.139z"/>
		<path d="M446.837,345.113c1.73-3.247,3.321-6.534,4.725-9.852c0.673-1.671,1.296-3.348,1.741-5.05
			c0.454-1.688,0.723-3.431,0.501-4.995c-0.591-3.382-1.808-6.913-2.876-10.366c-1.114-3.468-2.259-6.992-2.9-10.629
			c1.426,3.39,3.063,6.651,4.45,10.06c1.403,3.424,2.706,6.817,3.419,10.638c0.397,4.165-1.224,7.717-2.843,11.034
			C451.346,339.261,449.245,342.322,446.837,345.113z"/>
		<path d="M509.862,372.804c3.106-0.952,6.008-1.822,8.774-3.046c1.401-0.565,2.71-1.296,4.023-2.054
			c1.334-0.752,2.517-1.703,3.877-2.642c-0.663,1.481-1.63,2.885-2.888,3.962c-1.227,1.115-2.652,2.017-4.169,2.671
			c-1.525,0.637-3.117,1.103-4.744,1.296C513.117,373.192,511.461,373.198,509.862,372.804z"/>
	</g>
	<g>
		<path d="M140.825,454.408h-2.695v-26.014h17.457v2.659h-14.762v8.792h13.477v2.677h-13.477V454.408z"/>
		<path d="M208.861,454.408h-2.695v-26.014h2.695V454.408z"/>
		<path d="M271.958,454.806c-2.653,0-4.915-0.579-6.784-1.737c-1.87-1.158-3.292-2.746-4.269-4.767
			c-0.977-2.02-1.465-4.32-1.465-6.901c0-1.929,0.277-3.712,0.832-5.345c0.554-1.634,1.387-3.052,2.496-4.252
			c1.109-1.199,2.487-2.135,4.134-2.803c1.646-0.67,3.561-1.005,5.744-1.005c3.256,0,6.169,0.893,8.738,2.677l0.651,0.452
			l-1.429,2.46c-0.712-0.531-1.36-0.97-1.945-1.321c-0.585-0.35-1.306-0.669-2.162-0.959c-1.218-0.41-2.503-0.615-3.853-0.615
			c-2.268,0-4.176,0.449-5.726,1.348c-1.55,0.898-2.717,2.152-3.5,3.763c-0.784,1.609-1.176,3.475-1.176,5.598
			c0,2.038,0.362,3.865,1.085,5.481c0.724,1.616,1.806,2.891,3.247,3.827c1.441,0.934,3.235,1.401,5.382,1.401
			c1.99,0,3.675-0.395,5.056-1.184c1.381-0.791,2.448-1.876,3.202-3.256c0.753-1.381,1.179-2.976,1.275-4.785h-8.683v-2.732h11.451
			v1.61c0,2.449-0.47,4.664-1.411,6.648c-0.941,1.985-2.376,3.562-4.305,4.731C276.673,454.252,274.479,454.806,271.958,454.806z"/>
		<path d="M356.456,454.408h-2.695v-11.885h-16.227v11.885h-2.695v-26.014h2.695v11.451h16.227v-11.451h2.695V454.408z"/>
		<path d="M418.504,454.408h-2.695v-23.354h-8.774v-2.659h20.243v2.659h-8.774V454.408z"/>
		<path d="M495.873,454.408h-18.018v-26.014h17.493v2.659h-14.78v8.774h13.767v2.659h-13.767v9.262h15.304V454.408z"/>
		<path d="M567.166,454.408h-3.184l-5.97-7.815h-8.846v7.815h-2.714v-26.014h11.144c1.628,0,3.133,0.334,4.513,1.005
			c1.381,0.668,2.488,1.676,3.32,3.02c0.832,1.345,1.248,3.037,1.248,5.075c0,1.556-0.25,2.909-0.75,4.062
			c-0.501,1.151-1.185,2.104-2.054,2.858c-0.868,0.753-1.863,1.311-2.985,1.673L567.166,454.408z M557.759,443.934
			c1.158,0,2.198-0.242,3.12-0.724c0.924-0.482,1.653-1.2,2.19-2.153c0.536-0.952,0.805-2.141,0.805-3.564
			c0-1.435-0.271-2.629-0.814-3.582c-0.543-0.952-1.276-1.667-2.197-2.144c-0.924-0.476-1.957-0.714-3.103-0.714h-8.593v12.88
			H557.759z"/>
	</g>
</g>
</svg>
