<?xml version="1.0" encoding="utf-8"?>
<!-- Generator: Adobe Illustrator 24.0.0, SVG Export Plug-In . SVG Version: 6.00 Build 0)  -->
<svg version="1.1" xmlns="http://www.w3.org/2000/svg" xmlns:xlink="http://www.w3.org/1999/xlink" x="0px" y="0px"
	 viewBox="0 0 256 256" style="enable-background:new 0 0 256 256;" xml:space="preserve">
<style type="text/css">
	.st0{fill:#F98FA6;}
	.st1{fill:#FC657E;}
	.st2{fill:#DAE6F1;}
	.st3{fill:#5290DB;}
	.st4{fill:#FCDD86;}
	.st5{fill:#F5C84C;}
	.st6{fill:#87D147;}
	.st7{fill:#70D6F9;}
	.st8{fill:#EDF4FC;}
	.st9{fill:#9BE5F9;}
	.st10{fill:#B2E26D;}
	.st11{fill:#F9C1A8;}
	.st12{fill:#414344;}
	.st13{fill:#E1FBFF;}
	.st14{fill:#FFE3EC;}
	.st15{fill:#FCBECF;}
	.st16{fill:#EF4460;}
	.st17{fill:#80C2F9;}
	.st18{fill:#3A70BF;}
	.st19{fill:#FCA265;}
	.st20{fill:#5B5D60;}
	.st21{fill:#818182;}
	.st22{fill:#C7D7E5;}
	.st23{fill:#F9D0B4;}
	.st24{fill:#AA6F59;}
	.st25{fill:#D1856D;}
	.st26{fill:#FCC29A;}
	.st27{fill:#29589F;}
	.st28{fill:#F7B386;}
	.st29{fill:#FC8C48;}
	.st30{fill:#FFF0CC;}
	.st31{fill:#57AF12;}
	.st32{fill:#3CAADC;}
	.st33{fill:#EDB311;}
	.st34{fill:#231F20;}
</style>
<g id="Layer_1">
</g>
<g id="Layer_2">
</g>
<g id="Layer_3">
</g>
<g id="Layer_4">
</g>
<g id="Layer_5">
</g>
<g id="Layer_6">
</g>
<g id="Layer_7">
</g>
<g id="Layer_8">
</g>
<g id="Layer_9">
</g>
<g id="Layer_10">
</g>
<g id="Layer_11">
</g>
<g id="Layer_12">
</g>
<g id="Layer_13">
</g>
<g id="Layer_14">
</g>
<g id="Layer_15">
</g>
<g id="Layer_16">
</g>
<g id="Layer_17">
</g>
<g id="Layer_18">
</g>
<g id="Layer_19">
</g>
<g id="Layer_20">
</g>
<g id="Layer_21">
</g>
<g id="Layer_22">
</g>
<g id="Layer_23">
</g>
<g id="Layer_24">
</g>
<g id="Layer_25">
</g>
<g id="Layer_26">
</g>
<g id="Layer_27">
</g>
<g id="Layer_28">
</g>
<g id="Layer_29">
</g>
<g id="Layer_30">
</g>
<g id="Layer_31">
</g>
<g id="Layer_32">
</g>
<g id="Layer_33">
</g>
<g id="Layer_34">
</g>
<g id="Layer_35">
</g>
<g id="Layer_36">
</g>
<g id="Layer_37">
</g>
<g id="Layer_38">
</g>
<g id="Layer_39">
</g>
<g id="Layer_40">
</g>
<g id="Layer_41">
</g>
<g id="Layer_42">
</g>
<g id="Layer_43">
</g>
<g id="Layer_44">
</g>
<g id="Layer_45">
</g>
<g id="Layer_46">
</g>
<g id="Layer_47">
</g>
<g id="Layer_48">
</g>
<g id="Layer_49">
</g>
<g id="Layer_50">
</g>
<g id="Layer_51">
</g>
<g id="Layer_52">
</g>
<g id="Layer_53">
</g>
<g id="Layer_54">
</g>
<g id="Layer_55">
</g>
<g id="Layer_56">
</g>
<g id="Layer_57">
</g>
<g id="Layer_58">
</g>
<g id="Layer_59">
</g>
<g id="Layer_60">
</g>
<g id="Layer_61">
</g>
<g id="Layer_62">
</g>
<g id="Layer_63">
</g>
<g id="Layer_64">
</g>
<g id="Layer_65">
</g>
<g id="Layer_66">
</g>
<g id="Layer_67">
</g>
<g id="Layer_68">
</g>
<g id="Layer_69">
	<g>
		<g>
			<g>
				<path class="st5" d="M253.124,223.324l-1.364-5.092l-68.745,18.42l1.364,5.092c1.554,5.8,7.516,9.242,13.316,7.688
					l47.741-12.792C251.237,235.086,254.678,229.125,253.124,223.324z"/>
			</g>
		</g>
		<g>
			<g>
				<path class="st5" d="M4.237,218.233l-1.364,5.092c-1.554,5.8,1.888,11.762,7.688,13.316l47.741,12.792
					c5.8,1.554,11.762-1.888,13.316-7.688l1.364-5.092L4.237,218.233z"/>
			</g>
		</g>
		<g>
			<g>
				<path class="st33" d="M99.52,147.47c-4.073,0-7.405-3.332-7.405-7.405V120.16c-0.317-0.012-0.621-0.03-0.962-0.03
					c-9.207,0-9.207,4.557-18.413,4.557c-9.208,0-9.208-4.557-18.416-4.557c-9.207,0-9.207,4.557-18.413,4.557
					c-5.476,0-7.7-1.61-10.536-2.917c-0.013,0.619-0.039,1.237-0.044,1.857c-0.088,11.42-1.845,22.767-4.801,33.798L4.237,218.233
					l68.745,18.42l16.533-61.702c0.792-2.956,1.693-5.879,2.683-8.77c-0.049-0.346-0.084-0.696-0.084-1.055
					c0-2.236,0.995-4.235,2.561-5.593c1.661-4.121,3.52-8.162,5.583-12.102C100.016,147.457,99.77,147.47,99.52,147.47z"/>
			</g>
		</g>
		<g>
			<g>
				<path class="st4" d="M109.569,124.687c-0.985,0-1.847-0.061-2.644-0.154v10.136c1.522-3.285,2.911-6.63,4.162-10.03
					C110.608,124.668,110.107,124.687,109.569,124.687z"/>
			</g>
		</g>
		<g>
			<g>
				<path class="st33" d="M235.467,157.425c-2.956-11.032-4.713-22.378-4.801-33.798c-0.005-0.62-0.03-1.239-0.044-1.859
					c-2.841,1.307-5.065,2.919-10.548,2.919c-9.211,0-9.211-4.557-18.422-4.557c-4.971,0-7.26,1.327-9.762,2.549
					c0.299,0.804,0.47,1.67,0.47,2.578c0,4.089-3.315,7.405-7.405,7.405s-7.405-3.315-7.405-7.405c0-0.448,0.047-0.885,0.123-1.312
					c-4.249-1.291-6.004-3.815-12.861-3.815c-0.755,0-1.429,0.04-2.071,0.096v0.473c0,4.073-3.332,7.405-7.405,7.405
					c-2.669,0-5.013-1.436-6.317-3.569c-0.791,0.092-1.645,0.152-2.621,0.152c-0.528,0-1.019-0.019-1.49-0.047
					c2.391,6.497,5.256,12.812,8.676,18.84c5.616,9.901,9.949,20.477,12.895,31.471l16.533,61.702l68.745-18.42L235.467,157.425z"/>
			</g>
		</g>
		<g>
			<g>
				<path class="st30" d="M147.934,120.7V79.76l-8.939,2.395c-3.141,0.842-5.005,4.07-4.164,7.211l6.014,22.445
					c1.162,4.337,2.516,8.62,4.066,12.828c0.471,0.029,0.962,0.047,1.49,0.047c0.976,0,1.83-0.06,2.621-0.152
					C148.337,123.414,147.934,122.103,147.934,120.7z"/>
			</g>
		</g>
		<g>
			<g>
				<path class="st30" d="M226.098,89.925l-6.253-23.338c-0.842-3.141-4.07-5.005-7.211-4.164l-20.272,5.432v32.339
					c0,4.073-3.332,7.405-7.405,7.405s-7.405-3.332-7.405-7.405v-7.974c0-4.072-3.332-7.404-7.405-7.404s-7.404,3.332-7.404,7.404
					v28.006c0.641-0.056,1.315-0.096,2.071-0.096c6.857,0,8.613,2.524,12.861,3.815c0.62-3.463,3.641-6.093,7.282-6.093
					c3.181,0,5.886,2.01,6.934,4.827c2.501-1.222,4.791-2.549,9.762-2.549c9.211,0,9.211,4.557,18.422,4.557
					c5.483,0,7.707-1.612,10.548-2.919C230.391,111.012,228.884,100.32,226.098,89.925z"/>
			</g>
		</g>
		<g>
			<g>
				<path class="st30" d="M84.711,90.512c-4.073,0-7.404,3.332-7.404,7.405v4.557c0,4.073-3.332,7.405-7.405,7.405
					s-7.405-3.332-7.405-7.405V67.55l-19.133-5.127c-3.141-0.842-6.37,1.022-7.212,4.164L29.9,89.925
					c-2.786,10.396-4.293,21.088-4.525,31.845c2.837,1.306,5.06,2.917,10.536,2.917c9.207,0,9.207-4.557,18.413-4.557
					c9.208,0,9.208,4.557,18.416,4.557c9.206,0,9.206-4.557,18.413-4.557c0.341,0,0.645,0.018,0.962,0.03V97.917
					C92.115,93.844,88.783,90.512,84.711,90.512z"/>
			</g>
		</g>
		<g>
			<g>
				<path class="st30" d="M117.002,82.155l-10.078-2.7v45.078c0.797,0.093,1.659,0.154,2.644,0.154c0.538,0,1.039-0.019,1.518-0.048
					c1.549-4.208,2.903-8.491,4.065-12.827l6.014-22.445C122.008,86.225,120.144,82.997,117.002,82.155z"/>
			</g>
		</g>
		<g>
			<g>
				<circle class="st4" cx="99.52" cy="165.127" r="7.405"/>
			</g>
		</g>
		<g>
			<g>
				<path class="st5" d="M47.688,174.81c-3.146,0-5.696,2.55-5.696,5.696c0,3.146,2.55,5.696,5.696,5.696
					c3.146,0,5.696-2.55,5.696-5.696C53.384,177.36,50.834,174.81,47.688,174.81z"/>
			</g>
		</g>
		<g>
			<g>
				<circle class="st5" cx="66.484" cy="158.292" r="9.683"/>
			</g>
		</g>
		<g>
			<g>
				<circle class="st5" cx="185.526" cy="153.166" r="5.696"/>
			</g>
		</g>
		<g>
			<g>
				<path class="st5" d="M207.74,161.14c-5.348,0-9.683,4.335-9.683,9.683s4.335,9.683,9.683,9.683c5.348,0,9.683-4.335,9.683-9.683
					S213.088,161.14,207.74,161.14z"/>
			</g>
		</g>
		<g>
			<g>
				<path class="st4" d="M100.928,70.974L68.81,62.368c-3.185-0.854-6.313,1.546-6.313,4.844v34.983
					c0,3.759,2.683,7.123,6.409,7.616c4.511,0.597,8.4-2.938,8.4-7.338v-4.279c0-3.759,2.683-7.123,6.409-7.616
					c4.51-0.597,8.4,2.939,8.4,7.339v41.871c0,3.759,2.683,7.123,6.409,7.616c4.511,0.597,8.4-2.938,8.4-7.338V78.789
					C106.924,75.127,104.465,71.922,100.928,70.974z"/>
			</g>
		</g>
		<g>
			<g>
				<path class="st4" d="M186.049,62.673l-32.118,8.606c-3.537,0.948-5.996,4.153-5.996,7.814v41.328
					c0,3.759,2.682,7.123,6.409,7.616c4.51,0.597,8.4-2.938,8.4-7.338V92.499c0-3.759,2.682-7.123,6.409-7.617
					c4.51-0.597,8.4,2.938,8.4,7.338v7.974c0,4.4,3.89,7.936,8.4,7.338c3.726-0.493,6.409-3.857,6.409-7.616v-32.4
					C192.361,64.22,189.234,61.82,186.049,62.673z"/>
			</g>
		</g>
		<g>
			<g>
				<circle class="st4" cx="184.957" cy="125.256" r="7.405"/>
			</g>
		</g>
		<g>
			<g>
				<path class="st5" d="M54.325,120.13c-8.251,0-9.127,3.651-15.844,4.41c0.206,1.986,1.282,3.863,3.094,5l10.837,6.795
					c3.124,1.959,7.283,1.006,9.242-2.119l6.311-10.064C63.134,122.952,61.581,120.13,54.325,120.13z"/>
			</g>
		</g>
		<g>
			<g>
				<path class="st4" d="M66.332,114.138l-10.837-6.796c-3.124-1.959-7.283-1.005-9.242,2.118l-6.796,10.838
					c-0.822,1.312-1.125,2.805-0.976,4.242c6.717-0.76,7.592-4.41,15.844-4.41c7.256,0,8.809,2.822,13.641,4.022l0.485-0.773
					C70.409,120.256,69.456,116.097,66.332,114.138z"/>
			</g>
		</g>
		<g>
			<g>
				<path class="st5" d="M220.075,124.687c-9.211,0-9.211-4.557-18.422-4.557c-3.377,0-5.508,0.616-7.318,1.392
					c-1.89,3.115-0.931,7.216,2.166,9.157l10.837,6.795c3.124,1.959,7.283,1.006,9.242-2.119l6.796-10.837
					c0.015-0.024,0.026-0.048,0.04-0.072C222.444,124.597,221.35,124.687,220.075,124.687z"/>
			</g>
		</g>
		<g>
			<g>
				<path class="st4" d="M221.257,115.277l-10.837-6.796c-3.124-1.959-7.283-1.005-9.242,2.118l-6.796,10.838
					c-0.017,0.028-0.03,0.057-0.047,0.085c1.809-0.775,3.941-1.392,7.318-1.392c9.211,0,9.211,4.557,18.422,4.557
					c1.276,0,2.37-0.09,3.341-0.24C225.316,121.331,224.358,117.221,221.257,115.277z"/>
			</g>
		</g>
		<g>
			<g>
				<path class="st5" d="M202.444,21.882c-4.498-0.837-8.042-4.31-8.898-8.716c-0.043-0.221-0.352-0.221-0.395,0
					c-0.855,4.406-4.4,7.879-8.898,8.716c-0.226,0.042-0.226,0.345,0,0.387c4.498,0.838,8.042,4.311,8.898,8.717
					c0.043,0.221,0.352,0.221,0.395,0c0.855-4.406,4.4-7.879,8.898-8.717C202.67,22.227,202.67,21.925,202.444,21.882z"/>
			</g>
		</g>
		<g>
			<g>
				<path class="st1" d="M20.44,73.925c-3.507-0.653-6.27-3.361-6.937-6.796c-0.034-0.173-0.274-0.173-0.308,0
					c-0.667,3.435-3.43,6.143-6.937,6.796c-0.176,0.033-0.176,0.269,0,0.302c3.507,0.653,6.27,3.361,6.937,6.796
					c0.034,0.173,0.274,0.173,0.308,0c0.667-3.435,3.43-6.143,6.937-6.796C20.616,74.194,20.616,73.958,20.44,73.925z"/>
			</g>
		</g>
		<g>
			<g>
				<path class="st7" d="M149.155,177.302h-2.329v-2.33c0-1.744-1.413-3.157-3.157-3.157c-1.744,0-3.157,1.413-3.157,3.157v2.33
					h-2.33c-1.744,0-3.157,1.413-3.157,3.157c0,1.744,1.413,3.157,3.157,3.157h2.33v2.33c0,1.744,1.413,3.157,3.157,3.157
					c1.744,0,3.157-1.414,3.157-3.157v-2.33h2.329c1.744,0,3.157-1.413,3.157-3.157
					C152.313,178.715,150.899,177.302,149.155,177.302z"/>
			</g>
		</g>
		<g>
			<g>
				<circle class="st5" cx="154.461" cy="202.377" r="3.377"/>
			</g>
		</g>
		<g>
			<g>
				<circle class="st6" cx="173.461" cy="3.377" r="3.377"/>
			</g>
		</g>
		<g>
			<g>
				<path d="M255.539,222.677l-1.364-5.092c-0.358-1.334-1.731-2.12-3.063-1.768c-1.333,0.357-2.125,1.729-1.768,3.063l1.364,5.092
					c1.195,4.459-1.46,9.059-5.92,10.254l-47.74,12.792c-4.465,1.192-9.061-1.462-10.255-5.921l-1.364-5.091
					c-0.358-1.334-1.73-2.12-3.063-1.768c-1.333,0.357-2.125,1.729-1.768,3.063l1.364,5.091c1.6,5.968,7.017,9.913,12.921,9.913
					c1.143,0,2.304-0.148,3.458-0.457l47.741-12.792C253.206,237.146,257.448,229.799,255.539,222.677z"/>
			</g>
		</g>
		<g>
			<g>
				<g>
					<path d="M75.147,235.403c-0.331-0.574-0.878-0.993-1.518-1.165L4.885,215.817c-0.64-0.17-1.322-0.082-1.897,0.25
						c-0.574,0.331-0.993,0.878-1.165,1.518l-1.364,5.093c-1.908,7.122,2.334,14.469,9.456,16.378l47.742,12.792
						c1.151,0.309,2.32,0.461,3.481,0.461c2.317,0,4.604-0.607,6.665-1.797c3.094-1.786,5.306-4.67,6.23-8.12l1.364-5.091
						C75.569,236.66,75.479,235.978,75.147,235.403z M69.203,241.098c-0.578,2.16-1.964,3.966-3.9,5.084
						c-1.937,1.116-4.192,1.416-6.353,0.836l-47.741-12.792c-4.46-1.195-7.115-5.795-5.921-10.254l0.717-2.678l63.916,17.127
						L69.203,241.098z"/>
				</g>
			</g>
		</g>
		<g>
			<g>
				<path d="M101.207,145.606c-1.225-0.637-2.734-0.158-3.371,1.066c-1.911,3.681-3.688,7.531-5.284,11.447
					c-0.521,1.279,0.094,2.737,1.372,3.259c0.31,0.126,0.628,0.186,0.942,0.186c0.986,0,1.921-0.588,2.316-1.558
					c1.537-3.774,3.25-7.485,5.091-11.029C102.91,147.752,102.433,146.243,101.207,145.606z"/>
			</g>
		</g>
		<g>
			<g>
				<path d="M92.848,164.265c-1.312-0.441-2.727,0.259-3.171,1.565c-0.968,2.856-1.835,5.708-2.576,8.474l-16.533,61.702
					c-0.357,1.334,0.435,2.705,1.768,3.063c0.217,0.058,0.435,0.086,0.649,0.086c1.104,0,2.113-0.737,2.413-1.854l16.533-61.702
					c0.713-2.662,1.549-5.409,2.482-8.163C94.855,166.128,94.155,164.708,92.848,164.265z"/>
			</g>
		</g>
		<g>
			<g>
				<path d="M25.431,119.271c-0.02-0.001-0.038-0.001-0.057-0.001c-1.355,0-2.469,1.083-2.498,2.444l-0.018,0.659
					c-0.013,0.411-0.024,0.822-0.027,1.234c-0.081,10.634-1.667,21.794-4.716,33.17L1.822,217.585
					c-0.357,1.334,0.435,2.705,1.768,3.063c0.217,0.058,0.435,0.086,0.649,0.086c1.104,0,2.113-0.737,2.413-1.854l16.293-60.807
					c3.157-11.786,4.802-23.369,4.886-34.427c0.003-0.376,0.014-0.752,0.024-1.128l0.019-0.692
					C27.905,120.445,26.811,119.302,25.431,119.271z"/>
			</g>
		</g>
		<g>
			<g>
				<path d="M113.093,123.146c-0.504-0.678-1.323-1.055-2.158-1.003c-1.032,0.063-2.213,0.059-3.34-0.053
					c-1.371-0.137-2.598,0.869-2.732,2.244c-0.135,1.374,0.87,2.598,2.244,2.732c0.12,0.012,0.239,0.022,0.358,0.032
					c-0.824,2.064-1.706,4.118-2.634,6.139c-0.576,1.255-0.026,2.739,1.228,3.315c0.339,0.155,0.693,0.229,1.042,0.229
					c0.947,0,1.853-0.541,2.273-1.457c1.48-3.222,2.846-6.526,4.059-9.824C113.725,124.71,113.597,123.824,113.093,123.146z"/>
			</g>
		</g>
		<g>
			<g>
				<path d="M254.175,217.585l-16.293-60.807c-3.048-11.372-4.634-22.532-4.716-33.171c-0.003-0.412-0.015-0.824-0.027-1.235
					l-0.018-0.659c-0.029-1.362-1.143-2.445-2.498-2.445c-0.019,0-0.037,0-0.056,0.001c-1.381,0.03-2.476,1.174-2.444,2.554
					l0.019,0.694c0.011,0.377,0.021,0.753,0.024,1.13c0.085,11.062,1.729,22.645,4.886,34.427l15.646,58.392l-63.916,17.127
					l-15.886-59.287c-2.999-11.193-7.418-21.979-13.135-32.059c-2.678-4.72-5.104-9.803-7.232-15.148
					c0.098-0.009,0.196-0.018,0.295-0.027c1.375-0.133,2.381-1.354,2.248-2.729c-0.133-1.375-1.357-2.387-2.729-2.248
					c-1.114,0.107-2.269,0.111-3.283,0.051c-0.836-0.048-1.652,0.327-2.156,1.004c-0.503,0.678-0.631,1.563-0.34,2.354
					c2.511,6.823,5.488,13.286,8.848,19.21c5.508,9.71,9.766,20.102,12.654,30.886l16.533,61.702
					c0.172,0.64,0.591,1.187,1.165,1.518c0.384,0.222,0.814,0.335,1.25,0.335c0.217,0,0.435-0.028,0.647-0.085l68.745-18.421
					C253.74,220.29,254.532,218.919,254.175,217.585z"/>
			</g>
		</g>
		<g>
			<g>
				<path d="M149.762,79.27c-0.357-1.333-1.732-2.122-3.063-1.768l-8.351,2.238c-2.164,0.579-3.974,1.967-5.095,3.908
					c-1.12,1.94-1.418,4.201-0.838,6.365l6.015,22.445c1.185,4.418,2.575,8.807,4.135,13.044c0.371,1.011,1.328,1.638,2.346,1.638
					c0.287,0,0.579-0.05,0.863-0.155c1.296-0.477,1.96-1.913,1.482-3.209c-1.507-4.096-2.852-8.339-3.996-12.612l-6.015-22.445
					c-0.234-0.874-0.114-1.786,0.338-2.57c0.453-0.784,1.184-1.344,2.059-1.578l8.352-2.238
					C149.327,81.975,150.119,80.604,149.762,79.27z"/>
			</g>
		</g>
		<g>
			<g>
				<path d="M177.992,121.421c-1.02-0.347-1.912-0.787-2.856-1.255c-2.405-1.188-5.132-2.536-10.322-2.536
					c-0.544,0-1.051,0.019-1.534,0.049c-1.378,0.087-2.425,1.274-2.338,2.652c0.088,1.378,1.261,2.427,2.652,2.338
					c0.384-0.024,0.787-0.039,1.22-0.039c4.022,0,5.915,0.936,8.106,2.019c1.048,0.519,2.132,1.055,3.465,1.507
					c0.267,0.091,0.537,0.134,0.804,0.134c1.042,0,2.014-0.656,2.367-1.697C180,123.285,179.3,121.865,177.992,121.421z"/>
			</g>
		</g>
		<g>
			<g>
				<path d="M228.513,89.277l-6.253-23.338c-1.198-4.468-5.806-7.122-10.274-5.931l-19.729,5.286
					c-1.333,0.357-2.125,1.729-1.768,3.063c0.358,1.334,1.732,2.121,3.063,1.768l19.729-5.286c1.799-0.484,3.666,0.592,4.149,2.396
					l6.253,23.338c2.581,9.631,4.059,19.597,4.396,29.648c-2.146,1.062-4.045,1.966-8.003,1.966c-4.021,0-5.913-0.936-8.104-2.02
					c-2.404-1.189-5.13-2.537-10.319-2.537c-5.19,0-7.917,1.349-10.322,2.538l-0.34,0.168c-1.239,0.609-1.749,2.108-1.14,3.347
					c0.61,1.237,2.107,1.749,3.347,1.14l0.35-0.173c2.191-1.084,4.084-2.02,8.105-2.02c4.021,0,5.912,0.936,8.103,2.02
					c2.404,1.189,5.13,2.537,10.32,2.537c5.196,0,7.926-1.35,10.334-2.54c0.414-0.205,0.829-0.41,1.259-0.608
					c0.904-0.416,1.475-1.329,1.453-2.324C232.885,110.719,231.334,99.806,228.513,89.277z"/>
			</g>
		</g>
		<g>
			<g>
				<path d="M91.153,117.63c-5.188,0-7.912,1.349-10.315,2.538c-2.188,1.083-4.078,2.019-8.097,2.019
					c-1.291,0-2.422-0.097-3.46-0.295c-1.35-0.259-2.665,0.63-2.925,1.987c-0.259,1.355,0.631,2.665,1.987,2.925
					c1.35,0.258,2.788,0.383,4.397,0.383c5.188,0,7.912-1.349,10.315-2.538c2.188-1.083,4.078-2.019,8.097-2.019
					c1.381,0,2.5-1.119,2.5-2.5S92.534,117.63,91.153,117.63z"/>
			</g>
		</g>
		<g>
			<g>
				<path d="M62.745,65.028l-18.733-5.02c-2.163-0.579-4.425-0.283-6.365,0.838c-1.94,1.12-3.329,2.929-3.909,5.093l-6.253,23.338
					c-2.821,10.533-4.372,21.447-4.608,32.439c-0.021,0.995,0.549,1.908,1.453,2.324c0.429,0.197,0.842,0.402,1.256,0.607
					c2.406,1.189,5.134,2.538,10.326,2.538c0.771,0,1.514-0.029,2.208-0.088c1.376-0.115,2.397-1.324,2.282-2.7
					s-1.332-2.399-2.7-2.282c-0.556,0.047-1.158,0.07-1.79,0.07c-3.951,0-5.849-0.903-7.992-1.963
					c0.337-10.051,1.814-20.018,4.396-29.651l6.253-23.338c0.234-0.874,0.795-1.604,1.579-2.058c0.782-0.452,1.697-0.572,2.57-0.338
					l18.733,5.02c1.333,0.354,2.705-0.434,3.063-1.768S64.078,65.386,62.745,65.028z"/>
			</g>
		</g>
		<g>
			<g>
				<path d="M122.743,83.648c-1.12-1.94-2.93-3.329-5.093-3.908l-9.463-2.536c-1.329-0.352-2.704,0.434-3.062,1.768
					c-0.357,1.334,0.435,2.705,1.768,3.063l9.464,2.536c0.874,0.233,1.604,0.794,2.057,1.578c0.452,0.783,0.572,1.696,0.338,2.57
					l-6.014,22.445c-1.146,4.277-2.49,8.52-3.996,12.611c-0.478,1.296,0.187,2.732,1.482,3.209c0.284,0.105,0.576,0.155,0.863,0.155
					c1.018,0,1.974-0.627,2.346-1.638c1.559-4.232,2.949-8.621,4.135-13.043l6.014-22.445
					C124.161,87.85,123.863,85.589,122.743,83.648z"/>
			</g>
		</g>
		<g>
			<g>
				<g>
					<path d="M99.52,155.223c-5.461,0-9.904,4.443-9.904,9.904s4.443,9.904,9.904,9.904c5.462,0,9.905-4.443,9.905-9.904
						S104.981,155.223,99.52,155.223z M99.52,170.031c-2.704,0-4.904-2.2-4.904-4.904s2.2-4.904,4.904-4.904
						c2.705,0,4.905,2.2,4.905,4.904S102.225,170.031,99.52,170.031z"/>
				</g>
			</g>
		</g>
		<g>
			<g>
				<g>
					<path d="M47.688,172.31c-4.52,0-8.196,3.677-8.196,8.196c0,4.519,3.677,8.195,8.196,8.195c4.519,0,8.195-3.677,8.195-8.195
						C55.884,175.986,52.207,172.31,47.688,172.31z M47.688,183.701c-1.763,0-3.196-1.434-3.196-3.195
						c0-1.763,1.434-3.196,3.196-3.196c1.762,0,3.195,1.434,3.195,3.196C50.884,182.268,49.45,183.701,47.688,183.701z"/>
				</g>
			</g>
		</g>
		<g>
			<g>
				<g>
					<path d="M66.484,146.109c-6.718,0-12.183,5.465-12.183,12.183s5.465,12.183,12.183,12.183s12.183-5.465,12.183-12.183
						S73.202,146.109,66.484,146.109z M66.484,165.475c-3.961,0-7.183-3.222-7.183-7.183s3.222-7.183,7.183-7.183
						s7.183,3.222,7.183,7.183S70.445,165.475,66.484,165.475z"/>
				</g>
			</g>
		</g>
		<g>
			<g>
				<g>
					<path d="M185.526,144.97c-4.52,0-8.196,3.677-8.196,8.196c0,4.519,3.677,8.195,8.196,8.195c4.519,0,8.195-3.677,8.195-8.195
						C193.722,148.646,190.045,144.97,185.526,144.97z M185.526,156.361c-1.763,0-3.196-1.434-3.196-3.195
						c0-1.763,1.434-3.196,3.196-3.196c1.762,0,3.195,1.434,3.195,3.196C188.722,154.928,187.288,156.361,185.526,156.361z"/>
				</g>
			</g>
		</g>
		<g>
			<g>
				<g>
					<path d="M207.74,158.64c-6.718,0-12.184,5.465-12.184,12.183s5.466,12.184,12.184,12.184s12.183-5.466,12.183-12.184
						S214.458,158.64,207.74,158.64z M207.74,178.006c-3.961,0-7.184-3.223-7.184-7.184s3.223-7.183,7.184-7.183
						s7.183,3.222,7.183,7.183S211.701,178.006,207.74,178.006z"/>
				</g>
			</g>
		</g>
		<g>
			<g>
				<g>
					<path d="M101.575,68.56l-32.118-8.606c-2.273-0.606-4.651-0.138-6.52,1.297c-1.869,1.434-2.94,3.606-2.94,5.962v34.983
						c0,5.107,3.689,9.447,8.581,10.095c2.831,0.374,5.693-0.488,7.841-2.369c2.152-1.887,3.388-4.602,3.388-7.447v-4.279
						c0-2.609,1.821-4.818,4.236-5.138c1.426-0.19,2.809,0.227,3.889,1.173c1.07,0.938,1.684,2.281,1.684,3.688v41.87
						c0,5.108,3.689,9.448,8.581,10.095c0.436,0.058,0.872,0.086,1.307,0.086c2.391,0,4.717-0.863,6.534-2.455
						c2.152-1.887,3.388-4.602,3.388-7.447V78.789C109.425,74.004,106.196,69.798,101.575,68.56z M104.425,140.065
						c0,1.405-0.613,2.749-1.684,3.687c-1.08,0.946-2.464,1.362-3.89,1.173c-2.415-0.319-4.236-2.527-4.236-5.138v-41.87
						c0-2.847-1.235-5.562-3.389-7.448c-1.816-1.592-4.143-2.455-6.533-2.455c-0.435,0-0.871,0.028-1.307,0.086
						c-4.892,0.647-8.58,4.987-8.58,10.095v4.279c0,1.405-0.613,2.749-1.684,3.687c-1.08,0.946-2.464,1.364-3.889,1.173
						c-2.416-0.319-4.237-2.528-4.237-5.138V67.212c0-0.788,0.358-1.516,0.983-1.995c0.626-0.48,1.422-0.638,2.182-0.434
						l32.118,8.606c0.001,0,0.001,0,0.001,0c2.439,0.653,4.144,2.874,4.144,5.399V140.065z"/>
				</g>
			</g>
		</g>
		<g>
			<g>
				<g>
					<path d="M191.92,61.555c-1.868-1.434-4.244-1.907-6.519-1.296l-32.118,8.605c-4.622,1.239-7.85,5.445-7.85,10.229v41.328
						c0,5.107,3.689,9.447,8.581,10.095c0.436,0.058,0.872,0.086,1.307,0.086c2.391,0,4.717-0.863,6.534-2.455
						c2.152-1.887,3.388-4.602,3.388-7.447V92.499c0-2.609,1.821-4.818,4.237-5.138c1.425-0.192,2.809,0.227,3.888,1.173
						c1.07,0.938,1.684,2.281,1.684,3.687v7.975c0,2.846,1.235,5.561,3.388,7.447c2.147,1.882,5.009,2.745,7.841,2.369
						c4.892-0.647,8.581-4.987,8.581-10.095v-32.4C194.861,65.161,193.789,62.988,191.92,61.555z M189.861,99.917
						c0,2.609-1.821,4.818-4.237,5.138c-1.424,0.192-2.809-0.226-3.889-1.173c-1.07-0.938-1.684-2.281-1.684-3.687v-7.975
						c0-2.847-1.235-5.561-3.388-7.447c-2.148-1.882-5.011-2.744-7.84-2.369c-4.892,0.647-8.581,4.987-8.581,10.095V120.7
						c0,1.405-0.613,2.749-1.684,3.687c-1.08,0.946-2.464,1.364-3.889,1.173c-2.416-0.319-4.237-2.528-4.237-5.138V79.094
						c0-2.525,1.704-4.745,4.145-5.399l32.118-8.605c0.219-0.059,0.439-0.088,0.658-0.088c0.544,0,1.077,0.179,1.522,0.521
						c0.626,0.479,0.984,1.207,0.984,1.995V99.917z"/>
				</g>
			</g>
		</g>
		<g>
			<g>
				<g>
					<path d="M184.957,115.352c-5.462,0-9.905,4.443-9.905,9.905c0,5.461,4.443,9.904,9.905,9.904c5.461,0,9.904-4.443,9.904-9.904
						C194.861,119.795,190.418,115.352,184.957,115.352z M184.957,130.161c-2.705,0-4.905-2.2-4.905-4.904
						c0-2.705,2.2-4.905,4.905-4.905c2.704,0,4.904,2.2,4.904,4.905C189.861,127.961,187.661,130.161,184.957,130.161z"/>
				</g>
			</g>
		</g>
		<g>
			<g>
				<path d="M69.05,122.423c-1.17-0.733-2.713-0.38-3.446,0.79l-6.067,9.676c-0.593,0.945-1.524,1.604-2.624,1.856
					c-1.1,0.253-2.226,0.064-3.171-0.528l-10.838-6.795c-0.969-0.607-1.632-1.569-1.868-2.708c-0.28-1.353-1.607-2.214-2.956-1.94
					c-1.352,0.281-2.221,1.604-1.94,2.956c0.516,2.484,1.975,4.59,4.108,5.929l10.838,6.795c1.478,0.926,3.151,1.403,4.859,1.403
					c0.693,0,1.392-0.079,2.085-0.237c2.401-0.551,4.44-1.997,5.743-4.074l6.067-9.676C70.573,124.699,70.22,123.156,69.05,122.423z
					"/>
			</g>
		</g>
		<g>
			<g>
				<g>
					<path d="M71.734,117.764c-0.551-2.402-1.997-4.441-4.074-5.744l-10.838-6.796c-4.302-2.694-9.992-1.391-12.688,2.909
						l-6.796,10.837c-1.095,1.746-1.56,3.762-1.345,5.829c0.068,0.663,0.4,1.271,0.92,1.689c0.446,0.358,0.999,0.552,1.566,0.552
						c0.094,0,0.188-0.005,0.281-0.016c3.401-0.385,5.551-1.443,7.447-2.378c2.196-1.082,4.094-2.017,8.116-2.017
						c4.024,0,5.921,0.936,8.117,2.019c1.357,0.669,2.896,1.427,4.921,1.931c1.049,0.262,2.147-0.184,2.722-1.1l0.483-0.772
						C71.87,122.631,72.284,120.165,71.734,117.764z M66.762,121.137c-0.729-0.293-1.407-0.628-2.107-0.974
						c-2.409-1.188-5.139-2.533-10.329-2.533c-5.188,0-7.917,1.345-10.326,2.531c-0.717,0.354-1.395,0.687-2.118,0.978l6.49-10.35
						c0.797-1.272,2.168-1.97,3.568-1.97c0.763,0,1.534,0.207,2.227,0.641l10.838,6.796c0.945,0.593,1.604,1.524,1.856,2.624
						C67.035,119.643,66.999,120.418,66.762,121.137z"/>
				</g>
			</g>
		</g>
		<g>
			<g>
				<path d="M224.599,122.568c-1.17-0.733-2.713-0.38-3.446,0.79l-6.69,10.67c-0.593,0.945-1.524,1.604-2.624,1.856
					c-1.1,0.253-2.227,0.064-3.172-0.528l-10.837-6.796c-1.934-1.212-2.543-3.788-1.357-5.741c0.717-1.18,0.341-2.718-0.84-3.434
					c-1.178-0.716-2.718-0.341-3.434,0.84c-2.597,4.275-1.262,9.915,2.975,12.571l10.837,6.796c1.478,0.926,3.151,1.403,4.859,1.403
					c0.693,0,1.392-0.079,2.085-0.237c2.402-0.551,4.441-1.997,5.744-4.074l6.69-10.67
					C226.122,124.845,225.769,123.302,224.599,122.568z"/>
			</g>
		</g>
		<g>
			<g>
				<g>
					<path d="M222.585,113.159l-10.837-6.796c-2.077-1.302-4.543-1.713-6.944-1.166c-2.402,0.551-4.441,1.997-5.744,4.074
						l-6.779,10.814c-0.019,0.028-0.085,0.143-0.103,0.172c-0.546,0.932-0.432,2.108,0.282,2.919
						c0.714,0.809,1.865,1.066,2.86,0.644c1.372-0.589,3.197-1.19,6.332-1.19c4.021,0,5.912,0.936,8.103,2.02
						c2.404,1.189,5.13,2.537,10.32,2.537c1.333,0,2.551-0.088,3.724-0.27c0.728-0.112,1.368-0.54,1.751-1.169
						C228.161,121.468,226.831,115.82,222.585,113.159z M221.729,122.126c-0.526,0.04-1.074,0.061-1.654,0.061
						c-4.021,0-5.913-0.936-8.104-2.02c-2.404-1.189-5.13-2.537-10.319-2.537c-0.704,0-1.361,0.025-1.977,0.072l3.62-5.774
						c0.593-0.945,1.524-1.604,2.624-1.856c1.103-0.252,2.228-0.064,3.172,0.528l10.837,6.796
						C221.545,118.408,222.235,120.369,221.729,122.126z"/>
				</g>
			</g>
		</g>
		<g>
			<g>
				<path d="M128,9c-1.381,0-2.5,1.119-2.5,2.5v15c0,1.381,1.119,2.5,2.5,2.5s2.5-1.119,2.5-2.5v-15C130.5,10.119,129.381,9,128,9z"
					/>
			</g>
		</g>
		<g>
			<g>
				<path d="M107.415,31.346l-7.5-12.99c-0.69-1.196-2.222-1.605-3.415-0.915c-1.195,0.69-1.605,2.22-0.915,3.415l7.5,12.99
					c0.463,0.802,1.304,1.25,2.167,1.25c0.425,0,0.854-0.107,1.248-0.335C107.695,34.07,108.105,32.541,107.415,31.346z"/>
			</g>
		</g>
		<g>
			<g>
				<path d="M89.846,47.085l-12.99-7.5c-1.193-0.69-2.725-0.281-3.415,0.915c-0.69,1.195-0.28,2.725,0.915,3.415l12.99,7.5
					c0.394,0.228,0.823,0.335,1.248,0.335c0.863,0,1.704-0.448,2.167-1.25C91.451,49.305,91.041,47.775,89.846,47.085z"/>
			</g>
		</g>
		<g>
			<g>
				<path d="M182.56,40.5c-0.691-1.196-2.222-1.605-3.415-0.915l-12.99,7.5c-1.195,0.69-1.605,2.22-0.915,3.415
					c0.463,0.802,1.304,1.25,2.167,1.25c0.425,0,0.854-0.107,1.248-0.335l12.99-7.5C182.84,43.225,183.25,41.695,182.56,40.5z"/>
			</g>
		</g>
		<g>
			<g>
				<path d="M159.5,17.44c-1.193-0.69-2.725-0.281-3.415,0.915l-7.5,12.99c-0.69,1.195-0.28,2.725,0.915,3.415
					c0.394,0.228,0.823,0.335,1.248,0.335c0.863,0,1.704-0.448,2.167-1.25l7.5-12.99C161.105,19.66,160.695,18.131,159.5,17.44z"/>
			</g>
		</g>
	</g>
</g>
<g id="Layer_70">
</g>
<g id="Layer_71">
</g>
<g id="Layer_72">
</g>
<g id="Layer_73">
</g>
<g id="Layer_74">
</g>
<g id="Layer_75">
</g>
<g id="Layer_76">
</g>
<g id="Layer_77">
</g>
<g id="Layer_78">
</g>
<g id="Layer_79">
</g>
<g id="Layer_80">
</g>
<g id="Layer_81">
</g>
<g id="Layer_82">
</g>
<g id="Layer_83">
</g>
<g id="Layer_84">
</g>
<g id="Layer_85">
</g>
</svg>
